<svg xmlns="http://www.w3.org/2000/svg" viewBox="0 0 400 420" fill="none">
  <!-- Botanical branch with leaves -->
  <g stroke="#4B6F4E" stroke-width="2.5" stroke-linecap="round" stroke-linejoin="round" fill="none">
    <!-- Main stem -->
    <path d="M200 30 C200 30, 200 60, 200 130"/>

    <!-- Left leaf pair 1 -->
    <path d="M200 55 C190 48, 172 40, 160 45 C148 50, 152 62, 165 65 C178 68, 195 60, 200 55"/>
    <path d="M200 55 L165 55" opacity="0.5"/>

    <!-- Right leaf pair 1 -->
    <path d="M200 55 C210 48, 228 40, 240 45 C252 50, 248 62, 235 65 C222 68, 205 60, 200 55"/>
    <path d="M200 55 L235 55" opacity="0.5"/>

    <!-- Left leaf pair 2 -->
    <path d="M200 80 C188 72, 165 62, 150 68 C135 74, 140 88, 155 92 C170 96, 193 86, 200 80"/>
    <path d="M200 80 L155 80" opacity="0.5"/>

    <!-- Right leaf pair 2 -->
    <path d="M200 80 C212 72, 235 62, 250 68 C265 74, 260 88, 245 92 C230 96, 207 86, 200 80"/>
    <path d="M200 80 L245 80" opacity="0.5"/>

    <!-- Left leaf pair 3 -->
    <path d="M200 108 C186 100, 160 88, 142 95 C124 102, 130 118, 148 122 C166 126, 192 114, 200 108"/>
    <path d="M200 108 L148 108" opacity="0.5"/>

    <!-- Right leaf pair 3 -->
    <path d="M200 108 C214 100, 240 88, 258 95 C276 102, 270 118, 252 122 C234 126, 208 114, 200 108"/>
    <path d="M200 108 L252 108" opacity="0.5"/>

    <!-- Small berries/dots -->
    <circle cx="200" cy="38" r="3" fill="#4B6F4E" stroke="none"/>
    <circle cx="193" cy="42" r="2.5" fill="#4B6F4E" stroke="none"/>
    <circle cx="207" cy="42" r="2.5" fill="#4B6F4E" stroke="none"/>
    <circle cx="200" cy="46" r="2" fill="#4B6F4E" stroke="none"/>
  </g>

  <!-- Number 27 -->
  <text x="200" y="210" text-anchor="middle" font-family="'Playfair Display', 'Georgia', serif" font-size="72" font-weight="400" font-style="italic" letter-spacing="4" fill="#1E1C1A">27</text>

  <!-- BOTANICA text -->
  <text x="200" y="268" text-anchor="middle" font-family="'Playfair Display', 'Georgia', serif" font-size="42" font-weight="400" font-style="italic" letter-spacing="8" fill="#1E1C1A">BOTANICA</text>
</svg>
